<?xml version="1.0" encoding="UTF-8"?>
<svg version="1.1" xmlns="http://www.w3.org/2000/svg" width="292" height="292">
<path d="M0 0 C96.36 0 192.72 0 292 0 C292 96.36 292 192.72 292 292 C195.64 292 99.28 292 0 292 C0 195.64 0 99.28 0 0 Z " fill="#11131B" transform="translate(0,0)"/>
<path d="M0 0 C8.42387118 1.70885199 15.0539652 11.6572656 19.625 18.4375 C27.01686465 30.17256046 32.10688106 43.34288132 36.94921875 56.2890625 C39.37198428 62.93455732 39.37198428 62.93455732 43.59667969 68.41162109 C45.51193401 70.57944375 45.35962966 71.92811315 45.328125 74.7890625 C45.32296875 75.73136719 45.3178125 76.67367187 45.3125 77.64453125 C45.291875 78.62808594 45.27125 79.61164063 45.25 80.625 C45.24484375 81.58535156 45.2396875 82.54570313 45.234375 83.53515625 C45.17798558 88.73003186 44.86581942 93.80880093 44.23144531 98.96337891 C43.8937191 101.93522709 43.79301214 104.88565649 43.75 107.875 C43.72421875 108.96554688 43.6984375 110.05609375 43.671875 111.1796875 C44.0412995 114.354979 44.62620346 115.01350711 47 117 C47 117.66 47 118.32 47 119 C47.70125 118.9175 48.4025 118.835 49.125 118.75 C53.87806176 119.16330972 56.81091755 121.76317237 60.04296875 125.125 C62.50517467 128.74213285 63.32763431 132.08247047 64.25 136.3125 C64.42273438 137.05306641 64.59546875 137.79363281 64.7734375 138.55664062 C65.19422476 140.36836355 65.5987809 142.18384332 66 144 C64.43765625 143.92652344 64.43765625 143.92652344 62.84375 143.8515625 C58.95379519 144.00178433 56.92088441 144.63437352 53.5 146.375 C50.33433267 147.92976158 47.76606467 149.05551008 44.3125 149.875 C40.31893605 151.23130474 38.28248242 153.28768629 35.23828125 156.125 C31.24104469 159.47347042 26.65177618 161.69519247 22 164 C20.865625 164.5775 19.73125 165.155 18.5625 165.75 C14.363214 167.22343368 10.26767381 167.87258994 5.8671875 168.47265625 C3.00321879 168.99940799 0.62227246 169.74018939 -2 171 C-3.05021103 172.84971696 -3.05021103 172.84971696 -4 175 C-5.64529262 176.68777005 -7.31535577 178.35150694 -9 180 C-16.73270647 187.99262938 -24.97886742 196.95773484 -30 207 C-27.3153515 207.74025234 -24.62946226 208.47532439 -21.94140625 209.203125 C-20.23883686 209.66437886 -18.5375303 210.13046161 -16.83984375 210.609375 C5.50243702 216.66518827 27.09201878 212.3683102 47.5 202.609375 C51 201 51 201 53 201 C53 200.34 53 199.68 53 199 C54.68772587 197.85317401 56.42741219 196.78233684 58.1875 195.75 C62.85197508 192.87725671 65.73080798 190.32687179 69 186 C69.78375 185.4225 70.5675 184.845 71.375 184.25 C84.09159442 173.35006192 92.36999701 152.25398463 94 136 C94.2579131 131.43643016 94.34411945 126.88282206 94.375 122.3125 C94.38877686 121.18489258 94.40255371 120.05728516 94.41674805 118.89550781 C94.35852637 108.26034844 92.14819858 98.60649573 87.75 88.9375 C87.44626465 88.26122559 87.1425293 87.58495117 86.82958984 86.88818359 C76.70435772 64.89883215 59.1075607 49.38116885 37 40 C33.16196205 38.31582601 33.16196205 38.31582601 31.75 35.5625 C31 33 31 33 31 30 C37.72458346 31.23785865 43.17873742 33.20378853 49.1875 36.4375 C50.00903564 36.87562012 50.83057129 37.31374023 51.67700195 37.76513672 C59.48671949 42.05619031 66.30417179 47.14781062 73 53 C73.76570312 53.65355469 74.53140625 54.30710938 75.3203125 54.98046875 C89.91756888 68.40422021 98.47273071 88.90890406 102 108 C102.28810547 109.43666016 102.28810547 109.43666016 102.58203125 110.90234375 C105.85778166 135.17963418 99.37855869 160.9676702 84.953125 180.81640625 C83.01776141 183.25743815 81.02458992 185.63292056 79 188 C78.236875 189.010625 77.47375 190.02125 76.6875 191.0625 C60.56881615 208.6805963 36.43866278 219.86378384 12.6184082 221.1262207 C-2.80919768 221.60056876 -15.73007484 219.56350002 -30.453125 214.76953125 C-32.87565421 213.90358898 -32.87565421 213.90358898 -35 214 C-36.38938077 215.96147874 -37.7260411 217.96166576 -39 220 C-39.33 219.34 -39.66 218.68 -40 218 C-39.06421005 215.64018187 -38.06652192 213.30368736 -37 211 C-38.29550781 210.63068359 -38.29550781 210.63068359 -39.6171875 210.25390625 C-43.25439082 208.90570502 -45.95987235 207.16766028 -49.125 204.9375 C-53.68797654 201.55778078 -53.68797654 201.55778078 -59 200 C-61.2838063 200.89511761 -61.2838063 200.89511761 -63.5546875 202.38671875 C-64.41707031 202.91330078 -65.27945313 203.43988281 -66.16796875 203.98242188 C-67.50794922 204.82643555 -67.50794922 204.82643555 -68.875 205.6875 C-69.76058594 206.23083984 -70.64617187 206.77417969 -71.55859375 207.33398438 C-76.10092209 210.13316883 -80.58435583 213.00523143 -85 216 C-85.66 215.67 -86.32 215.34 -87 215 C-78.81869573 208.76451945 -70.49665132 202.79690888 -62 197 C-63.65699305 193.01165625 -66.42716307 190.06842234 -69.25 186.875 C-76.86687647 178.03402687 -81.86215644 168.92279242 -86 158 C-86.37253906 157.030625 -86.74507812 156.06125 -87.12890625 155.0625 C-95.45607452 131.95537625 -92.39319102 108.79781899 -85 86 C-84.67 85.34 -84.34 84.68 -84 84 C-84.57234375 83.7421875 -85.1446875 83.484375 -85.734375 83.21875 C-88.21128995 81.88634058 -90.1341166 80.34943882 -92.25 78.5 C-92.95640625 77.8915625 -93.6628125 77.283125 -94.390625 76.65625 C-96 75 -96 75 -96 73 C-96.71841064 72.72003174 -97.43682129 72.44006348 -98.17700195 72.15161133 C-100.8915486 71.04424157 -103.5243054 69.84059322 -106.16796875 68.57421875 C-107.14443359 68.10693359 -108.12089844 67.63964844 -109.12695312 67.15820312 C-110.13693359 66.67287109 -111.14691406 66.18753906 -112.1875 65.6875 C-113.17814453 65.21376953 -114.16878906 64.74003906 -115.18945312 64.25195312 C-121.49185073 61.230935 -127.75969176 58.14723357 -134 55 C-129.63777006 53.54592335 -126.44727966 55.3974282 -122.3125 56.9375 C-120.50980928 57.59046278 -118.70638988 58.24141644 -116.90234375 58.890625 C-115.9469873 59.23544922 -114.99163086 59.58027344 -114.00732422 59.93554688 C-107.84164066 62.11791255 -101.61748851 64.12990651 -95.3996582 66.15795898 C-90.94738953 67.62466425 -86.55794435 69.14456887 -82.22265625 70.9296875 C-74.99386862 73.88125136 -67.52625874 76.17826067 -60.09790039 78.57006836 C-52.70279637 80.95692613 -45.51100505 83.5083841 -38.47827148 86.83666992 C-36.15456615 87.92744481 -33.81692718 88.92472327 -31.4375 89.88671875 C-22.93800838 93.32939538 -14.67885206 97.03540844 -6.5625 101.3125 C-5.76392578 101.73297607 -4.96535156 102.15345215 -4.14257812 102.58666992 C-0.53634439 104.52085891 2.73646135 106.52227656 6 109 C6.66 109 7.32 109 8 109 C8.9858436 96.51379877 9.28922763 85.29771601 6.45263672 73.03662109 C3.55531253 60.000225 2.57011039 47.32657804 3 34 C-24.1826471 37.1750223 -45.16701949 46.47989832 -64 67 C-65.01992128 68.31815719 -66.02696 69.64686625 -67 71 C-69.31 70.67 -71.62 70.34 -74 70 C-73.57552297 65.16273056 -71.24359663 62.54998327 -68 59.1875 C-67.5037915 58.66269043 -67.00758301 58.13788086 -66.49633789 57.59716797 C-59.34093134 50.11500435 -52.14204537 43.93644806 -43 39 C-41.38931641 38.11634766 -41.38931641 38.11634766 -39.74609375 37.21484375 C-28.756978 31.43174485 -16.77649574 26.78582535 -4.1875 26.9375 C-3.21167969 26.94652344 -2.23585937 26.95554687 -1.23046875 26.96484375 C-0.12638672 26.98224609 -0.12638672 26.98224609 1 27 C0.83701416 26.45182617 0.67402832 25.90365234 0.50610352 25.33886719 C-0.06803556 22.68558577 -0.11273652 20.29257322 -0.09765625 17.578125 C-0.09443359 16.55332031 -0.09121094 15.52851562 -0.08789062 14.47265625 C-0.07951172 13.40917969 -0.07113281 12.34570312 -0.0625 11.25 C-0.05798828 10.17105469 -0.05347656 9.09210937 -0.04882812 7.98046875 C-0.03705727 5.32025617 -0.02061399 2.66015635 0 0 Z " fill="#4A998A" transform="translate(144,26)"/>
<path d="M0 0 C1.39915812 0.74377904 2.79416383 1.49537095 4.1875 2.25 C5.35345703 2.87648438 5.35345703 2.87648438 6.54296875 3.515625 C9.23310998 5.14082956 11.55475971 7.02803202 14 9 C15.81626135 10.21345047 17.65003701 11.40107661 19.5 12.5625 C20.87671875 13.43068359 20.87671875 13.43068359 22.28125 14.31640625 C23.1784375 14.87199219 24.075625 15.42757812 25 16 C25.87398437 16.54140625 26.74796875 17.0828125 27.6484375 17.640625 C30.05919565 19.11803932 30.05919565 19.11803932 33.125 20.1875 C40.78340376 23.38678988 47.22820536 29.32085368 53.5 34.625 C57.95428444 38.34330354 62.47189292 41.08886678 67.6875 43.61328125 C70.21967106 45.13172842 71.49731215 46.47229991 73 49 C72.79445631 53.00810187 71.17537334 55.69665529 69 59 C68.41476563 59.93199219 67.82953125 60.86398438 67.2265625 61.82421875 C64.95471399 65.06459215 62.53232401 67.6307709 59.6875 70.375 C56.5144028 73.45901501 53.46859371 76.55201138 50.6875 80 C46.53726594 84.88381054 41.39519449 88.56740001 36.3203125 92.4296875 C33.71365791 94.41786333 31.27620621 96.5151111 28.875 98.75 C26 101 26 101 24.078125 100.86328125 C12.35094873 95.99165351 4.58053417 78.89271321 -0.4375 67.9375 C-8.11097475 48.59077897 -9.71331902 22.58548693 -1.39453125 3.0625 C-0.93433594 2.051875 -0.47414063 1.04125 0 0 Z " fill="#12141C" transform="translate(66,116)"/>
<path d="M0 0 C0.73715325 6.02953559 -1.64719701 9.33220162 -4.875 14.125 C-5.7904472 15.52253144 -6.7045544 16.92094174 -7.6171875 18.3203125 C-8.02565918 18.93148926 -8.43413086 19.54266602 -8.85498047 20.17236328 C-10.03887716 22.06205425 -11.03419423 23.99136779 -12 26 C-16.22786917 25.42242224 -19.10251786 23.97152 -22.6875 21.6875 C-23.64011719 21.09324219 -24.59273438 20.49898437 -25.57421875 19.88671875 C-27.97772779 18.01732283 -28.93991181 16.8083038 -30 14 C-25.3374036 11.05369675 -20.66523084 8.1241588 -15.97460938 5.22265625 C-14.34947509 4.2163911 -12.72880206 3.20292454 -11.109375 2.1875 C-10.35140625 1.73375 -9.5934375 1.28 -8.8125 0.8125 C-8.17957031 0.42707031 -7.54664062 0.04164063 -6.89453125 -0.35546875 C-4.33697309 -1.22556586 -2.56479899 -0.69546363 0 0 Z " fill="#161A23" transform="translate(124,205)"/>
<path d="M0 0 C5.22388757 0.53304975 9.22637279 1.86009815 14 4 C16.98268862 5.0546787 19.98671941 6.03657015 23 7 C22.01 7.33 21.02 7.66 20 8 C20 8.66 20 9.32 20 10 C15.26210835 8.55676531 11.01141849 6.62773267 6.625 4.375 C5.66400391 3.88773437 5.66400391 3.88773437 4.68359375 3.390625 C3.12052499 2.59742593 1.55999378 1.79922969 0 1 C0 0.67 0 0.34 0 0 Z " fill="#4F7780" transform="translate(10,80)"/>
<path d="M0 0 C0.33 0.99 0.66 1.98 1 3 C-0.36328125 5.41015625 -0.36328125 5.41015625 -2.3125 8.0625 C-3.26576172 9.37927734 -3.26576172 9.37927734 -4.23828125 10.72265625 C-6 13 -6 13 -8 15 C-8.95272312 12.43992191 -9.11623296 11.31101605 -8.14453125 8.7109375 C-7.48517578 7.55464844 -7.48517578 7.55464844 -6.8125 6.375 C-6.38582031 5.59898437 -5.95914063 4.82296875 -5.51953125 4.0234375 C-3.85816419 1.81112866 -2.54273391 1.0127377 0 0 Z " fill="#4B8C85" transform="translate(121,218)"/>
<path d="M0 0 C0.99 0.33 1.98 0.66 3 1 C-0.44024219 3.82613703 -3.95122977 6.39131533 -7.6875 8.8125 C-8.64011719 9.43769531 -9.59273437 10.06289062 -10.57421875 10.70703125 C-11.37472656 11.13371094 -12.17523438 11.56039062 -13 12 C-13.66 11.67 -14.32 11.34 -15 11 C-13.06324055 9.54067427 -11.12562712 8.08250736 -9.1875 6.625 C-8.64029297 6.2125 -8.09308594 5.8 -7.52929688 5.375 C-5.05553395 3.51592968 -2.57565041 1.71710028 0 0 Z " fill="#576D83" transform="translate(72,230)"/>
<path d="M0 0 C0.33 1.32 0.66 2.64 1 4 C-4.625 8 -4.625 8 -8 8 C-6.49776416 3.79373966 -3.71449966 2.26099979 0 0 Z " fill="#4C8784" transform="translate(82,223)"/>
</svg>
